<svg xmlns="http://www.w3.org/2000/svg" width="42.951" height="40.805" viewBox="0 0 42.951 40.805">
  <g id="noun_Box_3093107" transform="translate(-0.278 -0.514)">
    <g id="Group_45952" data-name="Group 45952" transform="translate(0.278 0.514)">
      <path id="Path_38113" data-name="Path 38113" d="M43.2,10.47a1.578,1.578,0,0,0-.118-.418l-5.23-8.6A1.949,1.949,0,0,0,36.184.514H7.323a1.951,1.951,0,0,0-1.674.937L.555,9.728l-.136.3a2.115,2.115,0,0,0-.109.437L.278,39.354a1.968,1.968,0,0,0,1.965,1.965H41.265a1.965,1.965,0,0,0,1.965-1.965V10.724ZM8.419,4.443h26.66l2.665,4.33H5.758ZM39.3,37.385H4.207V12.7H39.3Z" transform="translate(-0.278 -0.514)" fill="#fff"/>
      <path id="Path_38114" data-name="Path 38114" d="M6.57,15.455h4.239v4.239a2.238,2.238,0,0,0,4.475,0V15.455h4.234a2.238,2.238,0,0,0,0-4.475H15.283V6.741a2.238,2.238,0,0,0-4.475,0V10.98H6.57a2.238,2.238,0,0,0,0,4.475Z" transform="translate(14.138 13.657)" fill="#fff"/>
    </g>
  </g>
</svg>
